<svg width="56" height="56" viewBox="0 0 56 56" fill="none" xmlns="http://www.w3.org/2000/svg">
<path d="M49 39.3621V12.3314C49 12.0131 48.6785 11.7954 48.3829 11.9136L37.4684 16.2794C37.3806 16.3145 37.2839 16.3211 37.1922 16.2981L18.8078 11.702C18.7161 11.6791 18.6194 11.6857 18.5316 11.7208L7.28287 16.2203C7.11203 16.2886 7 16.4541 7 16.6381V43.6688C7 43.9871 7.32154 44.2048 7.61713 44.0866L18.5316 39.7208C18.6194 39.6857 18.7161 39.6791 18.8078 39.702L37.1922 44.2981C37.2839 44.3211 37.3806 44.3145 37.4684 44.2794L48.7171 39.7799C48.888 39.7116 49 39.5461 49 39.3621Z" stroke="#6E2F2C" stroke-width="2" stroke-linejoin="round"/>
<path d="M37.3333 44.3333V16.3333" stroke="#6E2F2C" stroke-width="2"/>
<path d="M18.6667 39.6667L18.6667 11.6667" stroke="#6E2F2C" stroke-width="2"/>
</svg>
